<svg width="36" height="36" viewBox="0 0 36 36" fill="none" xmlns="http://www.w3.org/2000/svg">
<g clip-path="url(#clip0_1_107)">
<path d="M26.9993 0H8.99978C4.05034 0 0 4.05034 0 8.99978V27.0002C0 31.9483 4.05034 36 8.99978 36H26.9993C31.9488 36 35.9991 31.9483 35.9991 27.0002V8.99978C35.9991 4.05034 31.9488 0 26.9993 0ZM32.999 27.0002C32.999 30.3076 30.3086 32.9999 26.9993 32.9999H8.99978C5.69192 32.9999 3.00007 30.3076 3.00007 27.0002V8.99978C3.00007 5.69148 5.69192 3.00007 8.99978 3.00007H26.9993C30.3086 3.00007 32.999 5.69148 32.999 8.99978V27.0002Z" fill="white"/>
<path d="M27.7499 10.4999C28.9926 10.4999 29.9999 9.49255 29.9999 8.24994C29.9999 7.00733 28.9926 6 27.7499 6C26.5073 6 25.5 7.00733 25.5 8.24994C25.5 9.49255 26.5073 10.4999 27.7499 10.4999Z" fill="white"/>
<path d="M17.9998 9C13.0283 9 9 13.0287 9 17.9998C9 22.969 13.0283 27.0004 17.9998 27.0004C22.9699 27.0004 26.9996 22.969 26.9996 17.9998C26.9996 13.0287 22.9699 9 17.9998 9ZM17.9998 24.0004C14.6865 24.0004 12.0001 21.314 12.0001 17.9998C12.0001 14.6856 14.6865 12.0001 17.9998 12.0001C21.3131 12.0001 23.9995 14.6856 23.9995 17.9998C23.9995 21.314 21.3131 24.0004 17.9998 24.0004Z" fill="white"/>
</g>
<defs>
<clipPath id="clip0_1_107">
<rect width="36" height="36" fill="white"/>
</clipPath>
</defs>
</svg>
