<svg width="1476" height="233" viewBox="0 0 1476 233" fill="none" xmlns="http://www.w3.org/2000/svg">
<g clip-path="url(#clip0_1_380)">
<path fill-rule="evenodd" clip-rule="evenodd" d="M908.041 -994.599C1087.88 -1129.21 1346.98 -1173.38 1613.82 -989.965L1482.83 -732.334L1474.08 237.709L1.03027 248.251L-8.32715 -863.348L-235 -893.062L-234.092 -916.906C-166.009 -1023.69 50.3354 -1104.75 369.635 -951.223C533.471 -872.445 704.407 -842.175 908.041 -994.599Z" fill="#FBDF52"/>
<path fill-rule="evenodd" clip-rule="evenodd" d="M-153.97 230.381C-39.2697 74.4505 216.683 -32.9687 463.82 118.041C677.889 248.845 893.094 261.117 1081.61 157.924C1317.97 28.5445 1531.33 42.2793 1606.28 157.924C1677.53 267.856 1631.26 357.299 1631.26 285.659H-153.97V230.381Z" fill="white"/>
</g>
<defs>
<clipPath id="clip0_1_380">
<rect width="1476" height="233" fill="white"/>
</clipPath>
</defs>
</svg>
